<svg xmlns="http://www.w3.org/2000/svg" xmlns:xlink="http://www.w3.org/1999/xlink" width="36" height="1262" viewBox="0 0 36 1262">
  <defs>
    <clipPath id="clip-path">
      <rect id="Rectangle_5257" data-name="Rectangle 5257" width="36" height="1262" fill="#fff" stroke="#707070" stroke-width="1"/>
    </clipPath>
    <clipPath id="clip-path-2">
      <rect width="1404.445" height="35.757" fill="none"/>
    </clipPath>
  </defs>
  <g id="Mask_Group_10" data-name="Mask Group 10" clip-path="url(#clip-path)">
    <g id="Repeat_Grid_7" data-name="Repeat Grid 7" transform="translate(36 -142.445) rotate(90)" clip-path="url(#clip-path-2)">
      <g transform="translate(3431.854 -2133.146)">
        <line id="Line_212" data-name="Line 212" x1="112" y2="112" transform="translate(-3431.5 2133.5)" fill="none" stroke="#638592" stroke-width="2"/>
      </g>
      <g transform="translate(3444.854 -2133.146)">
        <line id="Line_213" data-name="Line 213" x1="112" y2="112" transform="translate(-3431.5 2133.5)" fill="none" stroke="#638592" stroke-width="2"/>
      </g>
      <g transform="translate(3457.854 -2133.146)">
        <line id="Line_214" data-name="Line 214" x1="112" y2="112" transform="translate(-3431.5 2133.5)" fill="none" stroke="#638592" stroke-width="2"/>
      </g>
      <g transform="translate(3470.854 -2133.146)">
        <line id="Line_215" data-name="Line 215" x1="112" y2="112" transform="translate(-3431.5 2133.5)" fill="none" stroke="#638592" stroke-width="2"/>
      </g>
      <g transform="translate(3483.854 -2133.146)">
        <line id="Line_216" data-name="Line 216" x1="112" y2="112" transform="translate(-3431.5 2133.5)" fill="none" stroke="#638592" stroke-width="2"/>
      </g>
      <g transform="translate(3496.854 -2133.146)">
        <line id="Line_217" data-name="Line 217" x1="112" y2="112" transform="translate(-3431.5 2133.5)" fill="none" stroke="#638592" stroke-width="2"/>
      </g>
      <g transform="translate(3509.854 -2133.146)">
        <line id="Line_218" data-name="Line 218" x1="112" y2="112" transform="translate(-3431.5 2133.5)" fill="none" stroke="#638592" stroke-width="2"/>
      </g>
      <g transform="translate(3522.854 -2133.146)">
        <line id="Line_219" data-name="Line 219" x1="112" y2="112" transform="translate(-3431.5 2133.5)" fill="none" stroke="#638592" stroke-width="2"/>
      </g>
      <g transform="translate(3535.854 -2133.146)">
        <line id="Line_220" data-name="Line 220" x1="112" y2="112" transform="translate(-3431.5 2133.5)" fill="none" stroke="#638592" stroke-width="2"/>
      </g>
      <g transform="translate(3548.854 -2133.146)">
        <line id="Line_221" data-name="Line 221" x1="112" y2="112" transform="translate(-3431.5 2133.5)" fill="none" stroke="#638592" stroke-width="2"/>
      </g>
      <g transform="translate(3561.854 -2133.146)">
        <line id="Line_222" data-name="Line 222" x1="112" y2="112" transform="translate(-3431.5 2133.5)" fill="none" stroke="#638592" stroke-width="2"/>
      </g>
      <g transform="translate(3574.854 -2133.146)">
        <line id="Line_223" data-name="Line 223" x1="112" y2="112" transform="translate(-3431.5 2133.5)" fill="none" stroke="#638592" stroke-width="2"/>
      </g>
      <g transform="translate(3587.854 -2133.146)">
        <line id="Line_224" data-name="Line 224" x1="112" y2="112" transform="translate(-3431.5 2133.5)" fill="none" stroke="#638592" stroke-width="2"/>
      </g>
      <g transform="translate(3600.854 -2133.146)">
        <line id="Line_225" data-name="Line 225" x1="112" y2="112" transform="translate(-3431.5 2133.5)" fill="none" stroke="#638592" stroke-width="2"/>
      </g>
      <g transform="translate(3613.854 -2133.146)">
        <line id="Line_226" data-name="Line 226" x1="112" y2="112" transform="translate(-3431.5 2133.5)" fill="none" stroke="#638592" stroke-width="2"/>
      </g>
      <g transform="translate(3626.854 -2133.146)">
        <line id="Line_227" data-name="Line 227" x1="112" y2="112" transform="translate(-3431.5 2133.5)" fill="none" stroke="#638592" stroke-width="2"/>
      </g>
      <g transform="translate(3639.854 -2133.146)">
        <line id="Line_228" data-name="Line 228" x1="112" y2="112" transform="translate(-3431.5 2133.5)" fill="none" stroke="#638592" stroke-width="2"/>
      </g>
      <g transform="translate(3652.854 -2133.146)">
        <line id="Line_229" data-name="Line 229" x1="112" y2="112" transform="translate(-3431.5 2133.5)" fill="none" stroke="#638592" stroke-width="2"/>
      </g>
      <g transform="translate(3665.854 -2133.146)">
        <line id="Line_230" data-name="Line 230" x1="112" y2="112" transform="translate(-3431.5 2133.5)" fill="none" stroke="#638592" stroke-width="2"/>
      </g>
      <g transform="translate(3678.854 -2133.146)">
        <line id="Line_231" data-name="Line 231" x1="112" y2="112" transform="translate(-3431.5 2133.5)" fill="none" stroke="#638592" stroke-width="2"/>
      </g>
      <g transform="translate(3691.854 -2133.146)">
        <line id="Line_232" data-name="Line 232" x1="112" y2="112" transform="translate(-3431.5 2133.5)" fill="none" stroke="#638592" stroke-width="2"/>
      </g>
      <g transform="translate(3704.854 -2133.146)">
        <line id="Line_233" data-name="Line 233" x1="112" y2="112" transform="translate(-3431.5 2133.5)" fill="none" stroke="#638592" stroke-width="2"/>
      </g>
      <g transform="translate(3717.854 -2133.146)">
        <line id="Line_234" data-name="Line 234" x1="112" y2="112" transform="translate(-3431.5 2133.5)" fill="none" stroke="#638592" stroke-width="2"/>
      </g>
      <g transform="translate(3730.854 -2133.146)">
        <line id="Line_235" data-name="Line 235" x1="112" y2="112" transform="translate(-3431.5 2133.5)" fill="none" stroke="#638592" stroke-width="2"/>
      </g>
      <g transform="translate(3743.854 -2133.146)">
        <line id="Line_236" data-name="Line 236" x1="112" y2="112" transform="translate(-3431.5 2133.5)" fill="none" stroke="#638592" stroke-width="2"/>
      </g>
      <g transform="translate(3756.854 -2133.146)">
        <line id="Line_237" data-name="Line 237" x1="112" y2="112" transform="translate(-3431.5 2133.5)" fill="none" stroke="#638592" stroke-width="2"/>
      </g>
      <g transform="translate(3769.854 -2133.146)">
        <line id="Line_238" data-name="Line 238" x1="112" y2="112" transform="translate(-3431.5 2133.5)" fill="none" stroke="#638592" stroke-width="2"/>
      </g>
      <g transform="translate(3782.854 -2133.146)">
        <line id="Line_239" data-name="Line 239" x1="112" y2="112" transform="translate(-3431.5 2133.5)" fill="none" stroke="#638592" stroke-width="2"/>
      </g>
      <g transform="translate(3795.854 -2133.146)">
        <line id="Line_240" data-name="Line 240" x1="112" y2="112" transform="translate(-3431.5 2133.5)" fill="none" stroke="#638592" stroke-width="2"/>
      </g>
      <g transform="translate(3808.854 -2133.146)">
        <line id="Line_241" data-name="Line 241" x1="112" y2="112" transform="translate(-3431.5 2133.5)" fill="none" stroke="#638592" stroke-width="2"/>
      </g>
      <g transform="translate(3821.854 -2133.146)">
        <line id="Line_242" data-name="Line 242" x1="112" y2="112" transform="translate(-3431.5 2133.5)" fill="none" stroke="#638592" stroke-width="2"/>
      </g>
      <g transform="translate(3834.854 -2133.146)">
        <line id="Line_243" data-name="Line 243" x1="112" y2="112" transform="translate(-3431.5 2133.5)" fill="none" stroke="#638592" stroke-width="2"/>
      </g>
      <g transform="translate(3847.854 -2133.146)">
        <line id="Line_244" data-name="Line 244" x1="112" y2="112" transform="translate(-3431.5 2133.5)" fill="none" stroke="#638592" stroke-width="2"/>
      </g>
      <g transform="translate(3860.854 -2133.146)">
        <line id="Line_245" data-name="Line 245" x1="112" y2="112" transform="translate(-3431.5 2133.5)" fill="none" stroke="#638592" stroke-width="2"/>
      </g>
      <g transform="translate(3873.854 -2133.146)">
        <line id="Line_246" data-name="Line 246" x1="112" y2="112" transform="translate(-3431.5 2133.5)" fill="none" stroke="#638592" stroke-width="2"/>
      </g>
      <g transform="translate(3886.854 -2133.146)">
        <line id="Line_247" data-name="Line 247" x1="112" y2="112" transform="translate(-3431.5 2133.5)" fill="none" stroke="#638592" stroke-width="2"/>
      </g>
      <g transform="translate(3899.854 -2133.146)">
        <line id="Line_248" data-name="Line 248" x1="112" y2="112" transform="translate(-3431.5 2133.5)" fill="none" stroke="#638592" stroke-width="2"/>
      </g>
      <g transform="translate(3912.854 -2133.146)">
        <line id="Line_249" data-name="Line 249" x1="112" y2="112" transform="translate(-3431.5 2133.5)" fill="none" stroke="#638592" stroke-width="2"/>
      </g>
      <g transform="translate(3925.854 -2133.146)">
        <line id="Line_250" data-name="Line 250" x1="112" y2="112" transform="translate(-3431.5 2133.5)" fill="none" stroke="#638592" stroke-width="2"/>
      </g>
      <g transform="translate(3938.854 -2133.146)">
        <line id="Line_251" data-name="Line 251" x1="112" y2="112" transform="translate(-3431.5 2133.5)" fill="none" stroke="#638592" stroke-width="2"/>
      </g>
      <g transform="translate(3951.854 -2133.146)">
        <line id="Line_252" data-name="Line 252" x1="112" y2="112" transform="translate(-3431.5 2133.5)" fill="none" stroke="#638592" stroke-width="2"/>
      </g>
      <g transform="translate(3964.854 -2133.146)">
        <line id="Line_253" data-name="Line 253" x1="112" y2="112" transform="translate(-3431.5 2133.5)" fill="none" stroke="#638592" stroke-width="2"/>
      </g>
      <g transform="translate(3977.854 -2133.146)">
        <line id="Line_254" data-name="Line 254" x1="112" y2="112" transform="translate(-3431.5 2133.5)" fill="none" stroke="#638592" stroke-width="2"/>
      </g>
      <g transform="translate(3990.854 -2133.146)">
        <line id="Line_255" data-name="Line 255" x1="112" y2="112" transform="translate(-3431.5 2133.5)" fill="none" stroke="#638592" stroke-width="2"/>
      </g>
      <g transform="translate(4003.854 -2133.146)">
        <line id="Line_256" data-name="Line 256" x1="112" y2="112" transform="translate(-3431.5 2133.5)" fill="none" stroke="#638592" stroke-width="2"/>
      </g>
      <g transform="translate(4016.854 -2133.146)">
        <line id="Line_257" data-name="Line 257" x1="112" y2="112" transform="translate(-3431.5 2133.5)" fill="none" stroke="#638592" stroke-width="2"/>
      </g>
      <g transform="translate(4029.854 -2133.146)">
        <line id="Line_258" data-name="Line 258" x1="112" y2="112" transform="translate(-3431.5 2133.5)" fill="none" stroke="#638592" stroke-width="2"/>
      </g>
      <g transform="translate(4042.854 -2133.146)">
        <line id="Line_259" data-name="Line 259" x1="112" y2="112" transform="translate(-3431.5 2133.5)" fill="none" stroke="#638592" stroke-width="2"/>
      </g>
      <g transform="translate(4055.854 -2133.146)">
        <line id="Line_260" data-name="Line 260" x1="112" y2="112" transform="translate(-3431.5 2133.5)" fill="none" stroke="#638592" stroke-width="2"/>
      </g>
      <g transform="translate(4068.854 -2133.146)">
        <line id="Line_261" data-name="Line 261" x1="112" y2="112" transform="translate(-3431.5 2133.5)" fill="none" stroke="#638592" stroke-width="2"/>
      </g>
      <g transform="translate(4081.854 -2133.146)">
        <line id="Line_262" data-name="Line 262" x1="112" y2="112" transform="translate(-3431.5 2133.5)" fill="none" stroke="#638592" stroke-width="2"/>
      </g>
      <g transform="translate(4094.854 -2133.146)">
        <line id="Line_263" data-name="Line 263" x1="112" y2="112" transform="translate(-3431.5 2133.5)" fill="none" stroke="#638592" stroke-width="2"/>
      </g>
      <g transform="translate(4107.854 -2133.146)">
        <line id="Line_264" data-name="Line 264" x1="112" y2="112" transform="translate(-3431.5 2133.5)" fill="none" stroke="#638592" stroke-width="2"/>
      </g>
      <g transform="translate(4120.854 -2133.146)">
        <line id="Line_265" data-name="Line 265" x1="112" y2="112" transform="translate(-3431.5 2133.5)" fill="none" stroke="#638592" stroke-width="2"/>
      </g>
      <g transform="translate(4133.854 -2133.146)">
        <line id="Line_266" data-name="Line 266" x1="112" y2="112" transform="translate(-3431.5 2133.5)" fill="none" stroke="#638592" stroke-width="2"/>
      </g>
      <g transform="translate(4146.854 -2133.146)">
        <line id="Line_267" data-name="Line 267" x1="112" y2="112" transform="translate(-3431.5 2133.5)" fill="none" stroke="#638592" stroke-width="2"/>
      </g>
      <g transform="translate(4159.854 -2133.146)">
        <line id="Line_268" data-name="Line 268" x1="112" y2="112" transform="translate(-3431.5 2133.5)" fill="none" stroke="#638592" stroke-width="2"/>
      </g>
      <g transform="translate(4172.854 -2133.146)">
        <line id="Line_269" data-name="Line 269" x1="112" y2="112" transform="translate(-3431.5 2133.5)" fill="none" stroke="#638592" stroke-width="2"/>
      </g>
      <g transform="translate(4185.854 -2133.146)">
        <line id="Line_270" data-name="Line 270" x1="112" y2="112" transform="translate(-3431.5 2133.5)" fill="none" stroke="#638592" stroke-width="2"/>
      </g>
      <g transform="translate(4198.854 -2133.146)">
        <line id="Line_271" data-name="Line 271" x1="112" y2="112" transform="translate(-3431.5 2133.5)" fill="none" stroke="#638592" stroke-width="2"/>
      </g>
      <g transform="translate(4211.854 -2133.146)">
        <line id="Line_272" data-name="Line 272" x1="112" y2="112" transform="translate(-3431.5 2133.5)" fill="none" stroke="#638592" stroke-width="2"/>
      </g>
      <g transform="translate(4224.854 -2133.146)">
        <line id="Line_273" data-name="Line 273" x1="112" y2="112" transform="translate(-3431.5 2133.5)" fill="none" stroke="#638592" stroke-width="2"/>
      </g>
      <g transform="translate(4237.854 -2133.146)">
        <line id="Line_274" data-name="Line 274" x1="112" y2="112" transform="translate(-3431.5 2133.5)" fill="none" stroke="#638592" stroke-width="2"/>
      </g>
      <g transform="translate(4250.854 -2133.146)">
        <line id="Line_275" data-name="Line 275" x1="112" y2="112" transform="translate(-3431.5 2133.5)" fill="none" stroke="#638592" stroke-width="2"/>
      </g>
      <g transform="translate(4263.854 -2133.146)">
        <line id="Line_276" data-name="Line 276" x1="112" y2="112" transform="translate(-3431.5 2133.5)" fill="none" stroke="#638592" stroke-width="2"/>
      </g>
      <g transform="translate(4276.854 -2133.146)">
        <line id="Line_277" data-name="Line 277" x1="112" y2="112" transform="translate(-3431.5 2133.5)" fill="none" stroke="#638592" stroke-width="2"/>
      </g>
      <g transform="translate(4289.854 -2133.146)">
        <line id="Line_278" data-name="Line 278" x1="112" y2="112" transform="translate(-3431.5 2133.5)" fill="none" stroke="#638592" stroke-width="2"/>
      </g>
      <g transform="translate(4302.854 -2133.146)">
        <line id="Line_279" data-name="Line 279" x1="112" y2="112" transform="translate(-3431.5 2133.5)" fill="none" stroke="#638592" stroke-width="2"/>
      </g>
      <g transform="translate(4315.854 -2133.146)">
        <line id="Line_280" data-name="Line 280" x1="112" y2="112" transform="translate(-3431.5 2133.5)" fill="none" stroke="#638592" stroke-width="2"/>
      </g>
      <g transform="translate(4328.854 -2133.146)">
        <line id="Line_281" data-name="Line 281" x1="112" y2="112" transform="translate(-3431.5 2133.5)" fill="none" stroke="#638592" stroke-width="2"/>
      </g>
      <g transform="translate(4341.854 -2133.146)">
        <line id="Line_282" data-name="Line 282" x1="112" y2="112" transform="translate(-3431.5 2133.5)" fill="none" stroke="#638592" stroke-width="2"/>
      </g>
      <g transform="translate(4354.854 -2133.146)">
        <line id="Line_283" data-name="Line 283" x1="112" y2="112" transform="translate(-3431.5 2133.5)" fill="none" stroke="#638592" stroke-width="2"/>
      </g>
      <g transform="translate(4367.854 -2133.146)">
        <line id="Line_284" data-name="Line 284" x1="112" y2="112" transform="translate(-3431.5 2133.5)" fill="none" stroke="#638592" stroke-width="2"/>
      </g>
      <g transform="translate(4380.854 -2133.146)">
        <line id="Line_285" data-name="Line 285" x1="112" y2="112" transform="translate(-3431.5 2133.5)" fill="none" stroke="#638592" stroke-width="2"/>
      </g>
      <g transform="translate(4393.854 -2133.146)">
        <line id="Line_286" data-name="Line 286" x1="112" y2="112" transform="translate(-3431.5 2133.5)" fill="none" stroke="#638592" stroke-width="2"/>
      </g>
      <g transform="translate(4406.854 -2133.146)">
        <line id="Line_287" data-name="Line 287" x1="112" y2="112" transform="translate(-3431.5 2133.5)" fill="none" stroke="#638592" stroke-width="2"/>
      </g>
      <g transform="translate(4419.854 -2133.146)">
        <line id="Line_288" data-name="Line 288" x1="112" y2="112" transform="translate(-3431.5 2133.5)" fill="none" stroke="#638592" stroke-width="2"/>
      </g>
      <g transform="translate(4432.854 -2133.146)">
        <line id="Line_289" data-name="Line 289" x1="112" y2="112" transform="translate(-3431.5 2133.5)" fill="none" stroke="#638592" stroke-width="2"/>
      </g>
      <g transform="translate(4445.854 -2133.146)">
        <line id="Line_290" data-name="Line 290" x1="112" y2="112" transform="translate(-3431.5 2133.5)" fill="none" stroke="#638592" stroke-width="2"/>
      </g>
      <g transform="translate(4458.854 -2133.146)">
        <line id="Line_291" data-name="Line 291" x1="112" y2="112" transform="translate(-3431.5 2133.5)" fill="none" stroke="#638592" stroke-width="2"/>
      </g>
      <g transform="translate(4471.854 -2133.146)">
        <line id="Line_292" data-name="Line 292" x1="112" y2="112" transform="translate(-3431.5 2133.5)" fill="none" stroke="#638592" stroke-width="2"/>
      </g>
      <g transform="translate(4484.854 -2133.146)">
        <line id="Line_293" data-name="Line 293" x1="112" y2="112" transform="translate(-3431.5 2133.5)" fill="none" stroke="#638592" stroke-width="2"/>
      </g>
      <g transform="translate(4497.854 -2133.146)">
        <line id="Line_294" data-name="Line 294" x1="112" y2="112" transform="translate(-3431.5 2133.5)" fill="none" stroke="#638592" stroke-width="2"/>
      </g>
      <g transform="translate(4510.854 -2133.146)">
        <line id="Line_295" data-name="Line 295" x1="112" y2="112" transform="translate(-3431.5 2133.5)" fill="none" stroke="#638592" stroke-width="2"/>
      </g>
      <g transform="translate(4523.854 -2133.146)">
        <line id="Line_296" data-name="Line 296" x1="112" y2="112" transform="translate(-3431.5 2133.5)" fill="none" stroke="#638592" stroke-width="2"/>
      </g>
      <g transform="translate(4536.854 -2133.146)">
        <line id="Line_297" data-name="Line 297" x1="112" y2="112" transform="translate(-3431.5 2133.5)" fill="none" stroke="#638592" stroke-width="2"/>
      </g>
      <g transform="translate(4549.854 -2133.146)">
        <line id="Line_298" data-name="Line 298" x1="112" y2="112" transform="translate(-3431.5 2133.5)" fill="none" stroke="#638592" stroke-width="2"/>
      </g>
      <g transform="translate(4562.854 -2133.146)">
        <line id="Line_299" data-name="Line 299" x1="112" y2="112" transform="translate(-3431.5 2133.5)" fill="none" stroke="#638592" stroke-width="2"/>
      </g>
      <g transform="translate(4575.854 -2133.146)">
        <line id="Line_300" data-name="Line 300" x1="112" y2="112" transform="translate(-3431.5 2133.5)" fill="none" stroke="#638592" stroke-width="2"/>
      </g>
      <g transform="translate(4588.854 -2133.146)">
        <line id="Line_301" data-name="Line 301" x1="112" y2="112" transform="translate(-3431.5 2133.5)" fill="none" stroke="#638592" stroke-width="2"/>
      </g>
      <g transform="translate(4601.854 -2133.146)">
        <line id="Line_302" data-name="Line 302" x1="112" y2="112" transform="translate(-3431.5 2133.5)" fill="none" stroke="#638592" stroke-width="2"/>
      </g>
      <g transform="translate(4614.854 -2133.146)">
        <line id="Line_303" data-name="Line 303" x1="112" y2="112" transform="translate(-3431.5 2133.5)" fill="none" stroke="#638592" stroke-width="2"/>
      </g>
      <g transform="translate(4627.854 -2133.146)">
        <line id="Line_304" data-name="Line 304" x1="112" y2="112" transform="translate(-3431.5 2133.5)" fill="none" stroke="#638592" stroke-width="2"/>
      </g>
      <g transform="translate(4640.854 -2133.146)">
        <line id="Line_304-2" data-name="Line 304" x1="112" y2="112" transform="translate(-3431.5 2133.5)" fill="none" stroke="#638592" stroke-width="2"/>
      </g>
      <g transform="translate(4653.854 -2133.146)">
        <line id="Line_304-3" data-name="Line 304" x1="112" y2="112" transform="translate(-3431.5 2133.5)" fill="none" stroke="#638592" stroke-width="2"/>
      </g>
      <g transform="translate(4666.854 -2133.146)">
        <line id="Line_304-4" data-name="Line 304" x1="112" y2="112" transform="translate(-3431.5 2133.5)" fill="none" stroke="#638592" stroke-width="2"/>
      </g>
      <g transform="translate(4679.854 -2133.146)">
        <line id="Line_304-5" data-name="Line 304" x1="112" y2="112" transform="translate(-3431.5 2133.5)" fill="none" stroke="#638592" stroke-width="2"/>
      </g>
      <g transform="translate(4692.854 -2133.146)">
        <line id="Line_304-6" data-name="Line 304" x1="112" y2="112" transform="translate(-3431.5 2133.5)" fill="none" stroke="#638592" stroke-width="2"/>
      </g>
      <g transform="translate(4705.854 -2133.146)">
        <line id="Line_304-7" data-name="Line 304" x1="112" y2="112" transform="translate(-3431.5 2133.5)" fill="none" stroke="#638592" stroke-width="2"/>
      </g>
      <g transform="translate(4718.854 -2133.146)">
        <line id="Line_304-8" data-name="Line 304" x1="112" y2="112" transform="translate(-3431.5 2133.5)" fill="none" stroke="#638592" stroke-width="2"/>
      </g>
      <g transform="translate(4731.854 -2133.146)">
        <line id="Line_304-9" data-name="Line 304" x1="112" y2="112" transform="translate(-3431.5 2133.5)" fill="none" stroke="#638592" stroke-width="2"/>
      </g>
      <g transform="translate(4744.854 -2133.146)">
        <line id="Line_304-10" data-name="Line 304" x1="112" y2="112" transform="translate(-3431.5 2133.5)" fill="none" stroke="#638592" stroke-width="2"/>
      </g>
      <g transform="translate(4757.854 -2133.146)">
        <line id="Line_304-11" data-name="Line 304" x1="112" y2="112" transform="translate(-3431.5 2133.5)" fill="none" stroke="#638592" stroke-width="2"/>
      </g>
      <g transform="translate(4770.854 -2133.146)">
        <line id="Line_304-12" data-name="Line 304" x1="112" y2="112" transform="translate(-3431.5 2133.5)" fill="none" stroke="#638592" stroke-width="2"/>
      </g>
      <g transform="translate(4783.854 -2133.146)">
        <line id="Line_304-13" data-name="Line 304" x1="112" y2="112" transform="translate(-3431.5 2133.5)" fill="none" stroke="#638592" stroke-width="2"/>
      </g>
      <g transform="translate(4796.854 -2133.146)">
        <line id="Line_304-14" data-name="Line 304" x1="112" y2="112" transform="translate(-3431.5 2133.5)" fill="none" stroke="#638592" stroke-width="2"/>
      </g>
      <g transform="translate(4809.854 -2133.146)">
        <line id="Line_304-15" data-name="Line 304" x1="112" y2="112" transform="translate(-3431.5 2133.5)" fill="none" stroke="#638592" stroke-width="2"/>
      </g>
      <g transform="translate(4822.854 -2133.146)">
        <line id="Line_304-16" data-name="Line 304" x1="112" y2="112" transform="translate(-3431.5 2133.5)" fill="none" stroke="#638592" stroke-width="2"/>
      </g>
      <g transform="translate(4835.854 -2133.146)">
        <line id="Line_304-17" data-name="Line 304" x1="112" y2="112" transform="translate(-3431.5 2133.5)" fill="none" stroke="#638592" stroke-width="2"/>
      </g>
    </g>
  </g>
</svg>
