<svg xmlns="http://www.w3.org/2000/svg" xmlns:xlink="http://www.w3.org/1999/xlink" width="32" height="763.427" viewBox="0 0 32 763.427">
  <defs>
    <clipPath id="clip-path">
      <rect id="Rectangle_225" data-name="Rectangle 225" width="32" height="41.142" fill="#587681"/>
    </clipPath>
  </defs>
  <g id="Group_15255" data-name="Group 15255" transform="translate(-884 -5576.581)">
    <g id="Group_15256" data-name="Group 15256" transform="translate(0 3149.285)">
      <g id="Group_15255-2" data-name="Group 15255" transform="translate(884 3149.581)">
        <g id="Group_13257" data-name="Group 13257" transform="translate(0 0)" clip-path="url(#clip-path)">
          <path id="Path_13" data-name="Path 13" d="M32,41.142H26.273a1.13,1.13,0,0,1-1.131-1.13V34.866a1.128,1.128,0,0,0-.422-.881l-.09-.073-.091-.072a1.132,1.132,0,0,0-.952-.222L1.669,38.487l-.113.025A1.132,1.132,0,0,1,.6,38.29l-.09-.073-.09-.072A1.129,1.129,0,0,1,0,37.264V3.879A1.129,1.129,0,0,1,.423,3l.09-.073L.6,2.853a1.132,1.132,0,0,1,.952-.221L23.474,7.5l.113.025a1.128,1.128,0,0,0,.952-.221l.091-.073.09-.072a1.128,1.128,0,0,0,.422-.881V1.271a1.132,1.132,0,0,1,.331-.8L25.544.4l.071-.071a1.131,1.131,0,0,1,.8-.331H32Z" transform="translate(0 0)" fill="#587681"/>
        </g>
      </g>
      <rect id="Rectangle_5261" data-name="Rectangle 5261" width="3.46" height="26" transform="translate(905 3157.152)" fill="#4d6771"/>
    </g>
    <g id="Group_15256-2" data-name="Group 15256" transform="translate(0 2788.142)">
      <g id="Group_15255-3" data-name="Group 15255" transform="translate(884 3149.581)">
        <g id="Group_13257-2" data-name="Group 13257" transform="translate(0 0)" clip-path="url(#clip-path)">
          <path id="Path_13-2" data-name="Path 13" d="M32,41.142H26.273a1.13,1.13,0,0,1-1.131-1.13V34.866a1.128,1.128,0,0,0-.422-.881l-.09-.073-.091-.072a1.132,1.132,0,0,0-.952-.222L1.669,38.487l-.113.025A1.132,1.132,0,0,1,.6,38.29l-.09-.073-.09-.072A1.129,1.129,0,0,1,0,37.264V3.879A1.129,1.129,0,0,1,.423,3l.09-.073L.6,2.853a1.132,1.132,0,0,1,.952-.221L23.474,7.5l.113.025a1.128,1.128,0,0,0,.952-.221l.091-.073.09-.072a1.128,1.128,0,0,0,.422-.881V1.271a1.132,1.132,0,0,1,.331-.8L25.544.4l.071-.071a1.131,1.131,0,0,1,.8-.331H32Z" transform="translate(0 0)" fill="#587681"/>
        </g>
      </g>
      <rect id="Rectangle_5261-2" data-name="Rectangle 5261" width="3.46" height="26" transform="translate(905 3157.152)" fill="#4d6771"/>
    </g>
    <g id="Group_15256-3" data-name="Group 15256" transform="translate(0 2427)">
      <g id="Group_15255-4" data-name="Group 15255" transform="translate(884 3149.581)">
        <g id="Group_13257-3" data-name="Group 13257" transform="translate(0 0)" clip-path="url(#clip-path)">
          <path id="Path_13-3" data-name="Path 13" d="M32,41.142H26.273a1.13,1.13,0,0,1-1.131-1.13V34.866a1.128,1.128,0,0,0-.422-.881l-.09-.073-.091-.072a1.132,1.132,0,0,0-.952-.222L1.669,38.487l-.113.025A1.132,1.132,0,0,1,.6,38.29l-.09-.073-.09-.072A1.129,1.129,0,0,1,0,37.264V3.879A1.129,1.129,0,0,1,.423,3l.09-.073L.6,2.853a1.132,1.132,0,0,1,.952-.221L23.474,7.5l.113.025a1.128,1.128,0,0,0,.952-.221l.091-.073.09-.072a1.128,1.128,0,0,0,.422-.881V1.271a1.132,1.132,0,0,1,.331-.8L25.544.4l.071-.071a1.131,1.131,0,0,1,.8-.331H32Z" transform="translate(0 0)" fill="#587681"/>
        </g>
      </g>
      <rect id="Rectangle_5261-3" data-name="Rectangle 5261" width="3.46" height="26" transform="translate(905 3157.152)" fill="#4d6771"/>
    </g>
  </g>
</svg>
