<svg xmlns="http://www.w3.org/2000/svg" xmlns:xlink="http://www.w3.org/1999/xlink" width="234.549" height="301.52" viewBox="0 0 234.549 301.52"><defs><clipPath id="a"><rect width="234.549" height="301.52" fill="#fff"/></clipPath></defs><g clip-path="url(#a)"><path d="M9.614,360.423a1.677,1.677,0,0,1-.029.33.623.623,0,0,1-.093.236.474.474,0,0,1-.151.143.356.356,0,0,1-.186.05H1.964V368.2H8.782a.485.485,0,0,1,.187.036.359.359,0,0,1,.15.121.548.548,0,0,1,.093.229,1.848,1.848,0,0,1,.029.358,1.677,1.677,0,0,1-.029.33.6.6,0,0,1-.093.236.453.453,0,0,1-.15.143.363.363,0,0,1-.187.05H1.964v8.169a.28.28,0,0,1-.187.272,1.252,1.252,0,0,1-.266.072,2.613,2.613,0,0,1-.423.029,2.649,2.649,0,0,1-.416-.029A1.228,1.228,0,0,1,.4,378.15a.293.293,0,0,1-.144-.114.3.3,0,0,1-.043-.158V360.524a.816.816,0,0,1,.273-.71.922.922,0,0,1,.531-.193H9.155a.364.364,0,0,1,.186.05.447.447,0,0,1,.151.151.707.707,0,0,1,.093.25,1.879,1.879,0,0,1,.029.351" transform="translate(-0.048 -81.875)" fill="#fff"/><path d="M19.2,360.466a1.33,1.33,0,0,1-.243.931,1.258,1.258,0,0,1-.89.243,1.226,1.226,0,0,1-.868-.236,1.91,1.91,0,0,1,.007-1.856,1.257,1.257,0,0,1,.89-.243,1.226,1.226,0,0,1,.869.236,1.329,1.329,0,0,1,.236.924m-.258,17.34a.289.289,0,0,1-.179.273,1.1,1.1,0,0,1-.259.071,2.532,2.532,0,0,1-.423.029,2.434,2.434,0,0,1-.409-.029,1.256,1.256,0,0,1-.266-.071.26.26,0,0,1-.136-.115.345.345,0,0,1-.036-.158V364.836a.347.347,0,0,1,.036-.158.292.292,0,0,1,.136-.122.869.869,0,0,1,.266-.072,3.359,3.359,0,0,1,.409-.021,3.493,3.493,0,0,1,.423.021.779.779,0,0,1,.259.072.347.347,0,0,1,.136.122.3.3,0,0,1,.043.158Z" transform="translate(-3.861 -81.803)" fill="#fff"/><path d="M27.409,365.983v7.838a4.79,4.79,0,0,0,.423,2.25,1.6,1.6,0,0,0,1.543.774,2.52,2.52,0,0,0,.625-.072,4,4,0,0,0,.5-.158q.215-.086.366-.158a.645.645,0,0,1,.266-.072.292.292,0,0,1,.129.029.216.216,0,0,1,.093.108.856.856,0,0,1,.057.2,1.8,1.8,0,0,1,.022.308,1.941,1.941,0,0,1-.05.487.634.634,0,0,1-.158.293,1.041,1.041,0,0,1-.315.2,2.647,2.647,0,0,1-.481.158,5.083,5.083,0,0,1-.575.1,4.966,4.966,0,0,1-.588.036,4.6,4.6,0,0,1-1.637-.258,2.6,2.6,0,0,1-1.105-.782,3.243,3.243,0,0,1-.625-1.325,8.139,8.139,0,0,1-.194-1.891v-8.068H23.763a.359.359,0,0,1-.316-.179,1.011,1.011,0,0,1-.115-.538,1.571,1.571,0,0,1,.029-.323.721.721,0,0,1,.086-.229.376.376,0,0,1,.137-.136.37.37,0,0,1,.179-.042H25.7v-3.182a.338.338,0,0,1,.036-.158.288.288,0,0,1,.136-.121.848.848,0,0,1,.266-.072,3.18,3.18,0,0,1,.409-.022,3.317,3.317,0,0,1,.423.022.767.767,0,0,1,.259.072.346.346,0,0,1,.136.121.3.3,0,0,1,.043.158v3.182h6.919v-3.769a.345.345,0,0,1,.036-.158.251.251,0,0,1,.136-.115,1.251,1.251,0,0,1,.266-.072,2.507,2.507,0,0,1,.409-.029,2.612,2.612,0,0,1,.423.029,1.105,1.105,0,0,1,.259.072.3.3,0,0,1,.136.115.293.293,0,0,1,.043.158v3.769h8.325a.512.512,0,0,1,.438.164.739.739,0,0,1,.123.451v12.654a.3.3,0,0,1-.043.158.3.3,0,0,1-.137.115,1.055,1.055,0,0,1-.258.071,2.537,2.537,0,0,1-.424.029,2.409,2.409,0,0,1-.409-.029,1.188,1.188,0,0,1-.266-.071.256.256,0,0,1-.137-.115.345.345,0,0,1-.036-.158V365.983H36.036v7.838a4.79,4.79,0,0,0,.423,2.25,1.588,1.588,0,0,0,1.528.774,2.516,2.516,0,0,0,.625-.072,3.912,3.912,0,0,0,.5-.158q.215-.086.374-.158a.688.688,0,0,1,.273-.072.249.249,0,0,1,.122.029.23.23,0,0,1,.086.108.82.82,0,0,1,.057.2,1.8,1.8,0,0,1,.022.308,2.25,2.25,0,0,1-.042.487.566.566,0,0,1-.158.293,1.179,1.179,0,0,1-.316.2,2.446,2.446,0,0,1-.473.158,5.053,5.053,0,0,1-.575.1,4.956,4.956,0,0,1-.588.036,4.654,4.654,0,0,1-1.651-.258,2.548,2.548,0,0,1-1.1-.782,3.307,3.307,0,0,1-.618-1.325,8.139,8.139,0,0,1-.194-1.891v-8.068Zm17.771-5.517a1.326,1.326,0,0,1-.244.931,1.253,1.253,0,0,1-.89.243,1.228,1.228,0,0,1-.869-.236,1.911,1.911,0,0,1,.008-1.855,1.254,1.254,0,0,1,.89-.244,1.225,1.225,0,0,1,.868.236,1.324,1.324,0,0,1,.237.924" transform="translate(-5.312 -81.803)" fill="#fff"/><path d="M68.011,379.28a.289.289,0,0,1-.179.273,1.1,1.1,0,0,1-.259.071,2.428,2.428,0,0,1-.409.029,2.545,2.545,0,0,1-.423-.029,1.091,1.091,0,0,1-.258-.071.286.286,0,0,1-.179-.273v-7.7a8.378,8.378,0,0,0-.187-1.956,3.88,3.88,0,0,0-.56-1.29,2.546,2.546,0,0,0-.955-.831,2.976,2.976,0,0,0-1.356-.293,3.41,3.41,0,0,0-1.981.7,10.777,10.777,0,0,0-2.081,2.064v9.3a.288.288,0,0,1-.18.273,1.08,1.08,0,0,1-.258.071,2.538,2.538,0,0,1-.423.029,2.428,2.428,0,0,1-.409-.029,1.256,1.256,0,0,1-.266-.071.26.26,0,0,1-.136-.115.345.345,0,0,1-.036-.158V366.311a.348.348,0,0,1,.036-.158.292.292,0,0,1,.136-.122.843.843,0,0,1,.251-.072,3.011,3.011,0,0,1,.395-.021,3.185,3.185,0,0,1,.4.021.686.686,0,0,1,.244.072.3.3,0,0,1,.122.122.347.347,0,0,1,.036.158v1.834a8.049,8.049,0,0,1,2.2-1.806,4.614,4.614,0,0,1,2.139-.559,4.859,4.859,0,0,1,2.153.43A3.8,3.8,0,0,1,67,367.371a4.723,4.723,0,0,1,.775,1.705,10.06,10.06,0,0,1,.237,2.35Z" transform="translate(-13.085 -83.278)" fill="#fff"/><path d="M87.234,366.741a.907.907,0,0,1-.129.559.409.409,0,0,1-.331.158H84.723a3.443,3.443,0,0,1,.839,1.34,4.867,4.867,0,0,1,.237,1.526,5.157,5.157,0,0,1-.351,1.963,4.009,4.009,0,0,1-1,1.454,4.4,4.4,0,0,1-1.535.91,5.841,5.841,0,0,1-1.967.316,5.6,5.6,0,0,1-1.665-.244,3.711,3.711,0,0,1-1.234-.6,2.494,2.494,0,0,0-.473.659,1.9,1.9,0,0,0-.187.86,1.1,1.1,0,0,0,.524.917,2.438,2.438,0,0,0,1.357.4l3.516.143a7.153,7.153,0,0,1,1.672.244,4.261,4.261,0,0,1,1.371.637,3.185,3.185,0,0,1,.934,1.04,2.92,2.92,0,0,1,.344,1.447,3.993,3.993,0,0,1-.352,1.647,3.713,3.713,0,0,1-1.091,1.383,5.613,5.613,0,0,1-1.888.946,9.474,9.474,0,0,1-2.742.351,10.952,10.952,0,0,1-2.591-.265,5.413,5.413,0,0,1-1.751-.731,2.871,2.871,0,0,1-.991-1.1,3.059,3.059,0,0,1-.308-1.362,3.766,3.766,0,0,1,.114-.945,3.263,3.263,0,0,1,.352-.846,4.345,4.345,0,0,1,.589-.774,9.719,9.719,0,0,1,.811-.759,2.7,2.7,0,0,1-1.077-.9,2.044,2.044,0,0,1-.344-1.132,3.434,3.434,0,0,1,.344-1.569,5.622,5.622,0,0,1,.833-1.225A4.316,4.316,0,0,1,76.368,372a4.615,4.615,0,0,1-.23-1.548A5.073,5.073,0,0,1,76.5,368.5a4.182,4.182,0,0,1,1-1.469,4.36,4.36,0,0,1,1.528-.924,5.681,5.681,0,0,1,1.952-.323,8.139,8.139,0,0,1,1.055.065,8.726,8.726,0,0,1,.911.165h3.832a.373.373,0,0,1,.351.186,1.106,1.106,0,0,1,.108.544M85.4,380.57a1.626,1.626,0,0,0-.768-1.447,3.984,3.984,0,0,0-2.06-.544l-3.775-.129a7.081,7.081,0,0,0-.846.76,3.966,3.966,0,0,0-.524.7,2.351,2.351,0,0,0-.265.659,2.993,2.993,0,0,0-.072.652,1.728,1.728,0,0,0,1.069,1.606,6.682,6.682,0,0,0,2.979.544,7.32,7.32,0,0,0,2.017-.236,3.971,3.971,0,0,0,1.314-.624,2.246,2.246,0,0,0,.717-.888,2.626,2.626,0,0,0,.215-1.047m-1.364-10.217a3.162,3.162,0,0,0-.811-2.307,3.07,3.07,0,0,0-2.3-.831,3.222,3.222,0,0,0-1.335.258,2.6,2.6,0,0,0-.948.7,2.981,2.981,0,0,0-.56,1.032,4.1,4.1,0,0,0-.187,1.247,3.078,3.078,0,0,0,.812,2.257,3.045,3.045,0,0,0,2.275.824,3.316,3.316,0,0,0,1.356-.258,2.631,2.631,0,0,0,.955-.7,2.925,2.925,0,0,0,.56-1.017,3.958,3.958,0,0,0,.186-1.211" transform="translate(-17.165 -83.278)" fill="#fff"/><path d="M119.635,375.827a3.885,3.885,0,0,1-.346,1.67,3.491,3.491,0,0,1-.988,1.253,4.522,4.522,0,0,1-1.535.789,6.756,6.756,0,0,1-1.975.272,7.319,7.319,0,0,1-1.283-.107,7.67,7.67,0,0,1-1.1-.272,5.146,5.146,0,0,1-.829-.351,2.726,2.726,0,0,1-.5-.33.821.821,0,0,1-.231-.358,1.855,1.855,0,0,1-.072-.573,1.681,1.681,0,0,1,.029-.33,1.278,1.278,0,0,1,.072-.243.344.344,0,0,1,.116-.151.273.273,0,0,1,.158-.05.978.978,0,0,1,.462.2,8.427,8.427,0,0,0,.756.437,6.921,6.921,0,0,0,1.081.437,5.255,5.255,0,0,0,2.659.057,2.882,2.882,0,0,0,.952-.43,1.956,1.956,0,0,0,.627-.738,2.346,2.346,0,0,0,.223-1.053,1.743,1.743,0,0,0-.288-1.017,2.738,2.738,0,0,0-.757-.724,5.869,5.869,0,0,0-1.067-.544l-1.226-.487q-.627-.251-1.225-.552a4.672,4.672,0,0,1-1.067-.731,3.183,3.183,0,0,1-1.045-2.479,3.557,3.557,0,0,1,.259-1.325,3.275,3.275,0,0,1,.8-1.168,4.015,4.015,0,0,1,1.383-.832,5.7,5.7,0,0,1,2-.315,6.228,6.228,0,0,1,1.853.287,4.572,4.572,0,0,1,.684.28,3.338,3.338,0,0,1,.439.265.853.853,0,0,1,.2.194.555.555,0,0,1,.073.164,1.859,1.859,0,0,1,.036.208,2.656,2.656,0,0,1,.014.294,1.954,1.954,0,0,1-.022.308,1.026,1.026,0,0,1-.065.236.365.365,0,0,1-.108.151.241.241,0,0,1-.151.049.722.722,0,0,1-.346-.158,5.3,5.3,0,0,0-.606-.344,5.781,5.781,0,0,0-.894-.344,4.125,4.125,0,0,0-1.2-.158,4.045,4.045,0,0,0-1.189.158,2.313,2.313,0,0,0-.843.444,1.83,1.83,0,0,0-.5.673,2.127,2.127,0,0,0-.166.846,1.861,1.861,0,0,0,.289,1.06,2.686,2.686,0,0,0,.764.745,6,6,0,0,0,1.08.558q.606.244,1.233.487t1.233.538a4.9,4.9,0,0,1,1.081.709,3.2,3.2,0,0,1,.763,1,3.111,3.111,0,0,1,.289,1.4" transform="translate(-25.223 -83.278)" fill="#fff"/><path d="M131.574,379.614l-1.816,4.858a.575.575,0,0,1-.3.265,1.846,1.846,0,0,1-.734.107,2.693,2.693,0,0,1-.432-.029.553.553,0,0,1-.267-.107.3.3,0,0,1-.107-.2.593.593,0,0,1,.057-.293l1.845-4.6a.492.492,0,0,1-.2-.144.531.531,0,0,1-.116-.2l-4.742-12.654a1.014,1.014,0,0,1-.072-.323.246.246,0,0,1,.08-.193.468.468,0,0,1,.26-.093,4.362,4.362,0,0,1,.483-.022,4.747,4.747,0,0,1,.5.022,1.219,1.219,0,0,1,.3.065.347.347,0,0,1,.158.114.964.964,0,0,1,.093.172l4.079,11.321h.056l4.008-11.321a.452.452,0,0,1,.195-.265.9.9,0,0,1,.324-.086,4.83,4.83,0,0,1,.49-.022,2.935,2.935,0,0,1,.454.029.566.566,0,0,1,.267.1.24.24,0,0,1,.086.194.9.9,0,0,1-.072.308Z" transform="translate(-28.387 -83.324)" fill="#fff"/><path d="M151.138,375.827a3.885,3.885,0,0,1-.346,1.67,3.491,3.491,0,0,1-.988,1.253,4.523,4.523,0,0,1-1.535.789,6.756,6.756,0,0,1-1.975.272,7.319,7.319,0,0,1-1.283-.107,7.67,7.67,0,0,1-1.1-.272,5.146,5.146,0,0,1-.829-.351,2.726,2.726,0,0,1-.5-.33.821.821,0,0,1-.231-.358,1.854,1.854,0,0,1-.072-.573,1.682,1.682,0,0,1,.029-.33,1.279,1.279,0,0,1,.072-.243.344.344,0,0,1,.116-.151.273.273,0,0,1,.158-.05.978.978,0,0,1,.462.2,8.425,8.425,0,0,0,.756.437,6.92,6.92,0,0,0,1.081.437,5.254,5.254,0,0,0,2.659.057,2.882,2.882,0,0,0,.952-.43,1.956,1.956,0,0,0,.627-.738,2.346,2.346,0,0,0,.223-1.053,1.743,1.743,0,0,0-.288-1.017,2.739,2.739,0,0,0-.757-.724,5.869,5.869,0,0,0-1.067-.544l-1.226-.487q-.627-.251-1.225-.552a4.672,4.672,0,0,1-1.067-.731,3.183,3.183,0,0,1-1.045-2.479,3.557,3.557,0,0,1,.259-1.325,3.275,3.275,0,0,1,.8-1.168,4.015,4.015,0,0,1,1.383-.832,5.7,5.7,0,0,1,2-.315,6.227,6.227,0,0,1,1.853.287,4.569,4.569,0,0,1,.684.28,3.336,3.336,0,0,1,.439.265.854.854,0,0,1,.2.194.556.556,0,0,1,.073.164,1.857,1.857,0,0,1,.036.208,2.662,2.662,0,0,1,.014.294,1.952,1.952,0,0,1-.022.308,1.027,1.027,0,0,1-.065.236.365.365,0,0,1-.108.151.241.241,0,0,1-.151.049.721.721,0,0,1-.346-.158,5.3,5.3,0,0,0-.605-.344,5.782,5.782,0,0,0-.894-.344,4.125,4.125,0,0,0-1.2-.158,4.045,4.045,0,0,0-1.189.158,2.313,2.313,0,0,0-.843.444,1.83,1.83,0,0,0-.5.673,2.126,2.126,0,0,0-.166.846,1.861,1.861,0,0,0,.289,1.06,2.686,2.686,0,0,0,.764.745,6,6,0,0,0,1.08.558q.606.244,1.233.487t1.233.538a4.9,4.9,0,0,1,1.081.709,3.2,3.2,0,0,1,.763,1,3.111,3.111,0,0,1,.289,1.4" transform="translate(-32.395 -83.278)" fill="#fff"/><path d="M164.279,377.527a1.941,1.941,0,0,1-.05.487.646.646,0,0,1-.159.293,1.051,1.051,0,0,1-.317.2,2.712,2.712,0,0,1-.483.158,5.111,5.111,0,0,1-.576.1,5,5,0,0,1-.591.036,4.627,4.627,0,0,1-1.643-.258,2.607,2.607,0,0,1-1.11-.781,3.246,3.246,0,0,1-.627-1.325,8.1,8.1,0,0,1-.195-1.891v-8.069h-1.945a.358.358,0,0,1-.317-.179,1,1,0,0,1-.115-.537,1.574,1.574,0,0,1,.029-.323.721.721,0,0,1,.087-.229.352.352,0,0,1,.317-.179h1.945v-3.181a.347.347,0,0,1,.036-.158.3.3,0,0,1,.137-.122.846.846,0,0,1,.267-.071,3.2,3.2,0,0,1,.41-.022,3.357,3.357,0,0,1,.426.022.767.767,0,0,1,.259.071.35.35,0,0,1,.137.122.3.3,0,0,1,.043.158v3.181h3.6a.373.373,0,0,1,.18.043.378.378,0,0,1,.137.136.721.721,0,0,1,.086.229,1.572,1.572,0,0,1,.029.323.953.953,0,0,1-.123.537.363.363,0,0,1-.31.179h-3.6v7.839a4.767,4.767,0,0,0,.426,2.25,1.609,1.609,0,0,0,1.549.774,2.539,2.539,0,0,0,.627-.072,4.172,4.172,0,0,0,.5-.158q.215-.086.368-.158a.634.634,0,0,1,.266-.072.3.3,0,0,1,.13.029.214.214,0,0,1,.093.107.874.874,0,0,1,.058.2,1.872,1.872,0,0,1,.022.308" transform="translate(-35.551 -82.298)" fill="#fff"/><path d="M181.415,372.129a.813.813,0,0,1-.273.71.925.925,0,0,1-.534.193h-8.893a9.215,9.215,0,0,0,.238,2.179,4.3,4.3,0,0,0,.786,1.669,3.529,3.529,0,0,0,1.426,1.068,5.556,5.556,0,0,0,2.163.372,7.649,7.649,0,0,0,1.628-.158,9.581,9.581,0,0,0,1.247-.351q.526-.193.865-.351a1.373,1.373,0,0,1,.483-.158.3.3,0,0,1,.158.042.3.3,0,0,1,.115.137.835.835,0,0,1,.065.236,2.417,2.417,0,0,1,.022.358,1.3,1.3,0,0,1-.015.193,1.561,1.561,0,0,1-.036.172.589.589,0,0,1-.065.151.724.724,0,0,1-.115.143,2.168,2.168,0,0,1-.447.251,6.812,6.812,0,0,1-.98.358,13.376,13.376,0,0,1-1.4.322,9.754,9.754,0,0,1-1.723.144,7.392,7.392,0,0,1-2.681-.452,5.027,5.027,0,0,1-1.96-1.332,5.836,5.836,0,0,1-1.2-2.186,10.094,10.094,0,0,1-.41-3.024,9.506,9.506,0,0,1,.425-2.952,6.3,6.3,0,0,1,1.218-2.214,5.258,5.258,0,0,1,1.91-1.39,6.239,6.239,0,0,1,2.487-.48,5.861,5.861,0,0,1,2.508.487,4.771,4.771,0,0,1,1.708,1.311,5.3,5.3,0,0,1,.981,1.913,8.359,8.359,0,0,1,.309,2.293Zm-1.772-.5a4.644,4.644,0,0,0-.951-3.225,3.606,3.606,0,0,0-2.9-1.161,3.764,3.764,0,0,0-2.977,1.333,4.284,4.284,0,0,0-.785,1.4,6.01,6.01,0,0,0-.317,1.655Z" transform="translate(-38.674 -83.278)" fill="#fff"/><path d="M208.449,379.28a.3.3,0,0,1-.043.158.305.305,0,0,1-.137.115,1.107,1.107,0,0,1-.26.071,2.454,2.454,0,0,1-.411.029,2.562,2.562,0,0,1-.426-.029,1.252,1.252,0,0,1-.266-.071.256.256,0,0,1-.137-.115.336.336,0,0,1-.036-.158V371.3a7.737,7.737,0,0,0-.166-1.67,3.842,3.842,0,0,0-.518-1.29,2.486,2.486,0,0,0-.894-.831,2.635,2.635,0,0,0-1.275-.293,3.055,3.055,0,0,0-1.838.7,12.513,12.513,0,0,0-2.04,2.064v9.3a.293.293,0,0,1-.043.158.3.3,0,0,1-.137.115,1.107,1.107,0,0,1-.26.071,2.964,2.964,0,0,1-.821,0,1.248,1.248,0,0,1-.267-.071.259.259,0,0,1-.137-.115.336.336,0,0,1-.036-.158V371.3a7.439,7.439,0,0,0-.173-1.67,3.93,3.93,0,0,0-.526-1.29,2.478,2.478,0,0,0-.894-.831,2.636,2.636,0,0,0-1.276-.293,3.051,3.051,0,0,0-1.837.7,12.088,12.088,0,0,0-2.025,2.064v9.3a.3.3,0,0,1-.043.158.309.309,0,0,1-.137.115,1.118,1.118,0,0,1-.259.071,2.569,2.569,0,0,1-.426.029,2.448,2.448,0,0,1-.411-.029,1.252,1.252,0,0,1-.266-.071.256.256,0,0,1-.137-.115.336.336,0,0,1-.036-.158V366.311a.338.338,0,0,1,.036-.158.287.287,0,0,1,.137-.122.847.847,0,0,1,.253-.072,3.012,3.012,0,0,1,.4-.021,3.2,3.2,0,0,1,.4.021.7.7,0,0,1,.246.072.3.3,0,0,1,.122.122.348.348,0,0,1,.036.158v1.834a8.652,8.652,0,0,1,2.133-1.806,4.111,4.111,0,0,1,2-.559,5.07,5.07,0,0,1,1.463.194,3.818,3.818,0,0,1,1.131.544,3.575,3.575,0,0,1,.836.838,4.615,4.615,0,0,1,.562,1.075,14.064,14.064,0,0,1,1.275-1.254,7.606,7.606,0,0,1,1.139-.817,4.447,4.447,0,0,1,1.045-.444,3.817,3.817,0,0,1,.994-.137,4.515,4.515,0,0,1,2.068.43,3.639,3.639,0,0,1,1.355,1.161,4.813,4.813,0,0,1,.734,1.705,9.207,9.207,0,0,1,.224,2.064Z" transform="translate(-43.224 -83.278)" fill="#fff"/><path d="M211.528,323.119c0-6.509,0-12.628.008-18.745,0-.144.117-.288.23-.553H214.6c.046.616.115,1.128.115,1.639q.012,9.895,0,19.79c0,.934.158,1.979-.983,2.441a3.438,3.438,0,0,1-3.492-.854,8.369,8.369,0,0,1-.956-1.443q-1.518-2.772-2.994-5.569-3.06-5.8-6.1-11.61a6.061,6.061,0,0,0-.493-.645v2.52q0,7.916,0,15.832a3.364,3.364,0,0,1-.042,1.1,1.264,1.264,0,0,1-.673.729,4.356,4.356,0,0,1-1.41.066.966.966,0,0,1-1.039-1.114c.009-.264,0-.528,0-.792q0-9.9,0-19.79c0-.264-.015-.53.008-.792.1-1.212.461-1.562,1.676-1.626.42-.022.843.011,1.264,0a2.532,2.532,0,0,1,2.437,1.44c1.021,1.9,2.069,3.792,3.078,5.7,1.969,3.726,3.919,7.463,5.88,11.193.141.268.314.518.656,1.079" transform="translate(-44.743 -69.142)" fill="#fff"/><path d="M168.855,314.809a17.947,17.947,0,0,1,1.718.93,5.974,5.974,0,0,1,2.654,5.871A6.121,6.121,0,0,1,168.974,327a10.828,10.828,0,0,1-3.223.67c-2.208.1-4.424.054-6.636.023-1.376-.019-1.647-.3-1.65-1.713q-.021-10.282,0-20.562c0-1.371.324-1.7,1.677-1.708,2.159-.018,4.319.005,6.478.056a7.658,7.658,0,0,1,1.705.3,5.235,5.235,0,0,1,4.274,4.335c.405,2.382-.074,4.519-2.227,5.991-.158.108-.3.242-.517.423m-8.034,1.953a36.834,36.834,0,0,0,.053,8.27c1.616,0,3.25.039,4.881-.009,2.42-.07,4.008-1.545,4.1-3.73.107-2.513-1.214-4.263-3.659-4.5-1.772-.171-3.573-.033-5.376-.033m-.2-10.423c0,1.4-.006,2.652,0,3.906.008,1.235.029,2.471.045,3.776,1.457,0,2.715.006,3.973,0,2.3-.014,4.07-1.508,3.7-4.687a3.015,3.015,0,0,0-2.679-2.843,4.12,4.12,0,0,0-.769-.143c-1.357-.015-2.714-.007-4.276-.007" transform="translate(-35.848 -69.144)" fill="#fff"/><path d="M228.336,315.723c0-3.325-.008-6.65,0-9.975.005-1.859.175-2.069,1.959-2.04a60.8,60.8,0,0,1,7.726.3c4.47.651,7.266,3.37,8.283,7.792a15.951,15.951,0,0,1-.847,10.073,8.74,8.74,0,0,1-6.328,5.242,34.436,34.436,0,0,1-5.477.575c-1.207.081-2.425.036-3.638.008-1.42-.034-1.664-.263-1.674-1.678-.021-3.431-.007-6.861-.007-10.292m3.263-9.31v18.493a44.9,44.9,0,0,0,5.26-.038,6.528,6.528,0,0,0,5.848-4.811,14.267,14.267,0,0,0,.109-8.4,6.725,6.725,0,0,0-4.324-4.7,17.066,17.066,0,0,0-6.893-.551" transform="translate(-51.984 -69.145)" fill="#fff"/><path d="M292.561,316.057a8.063,8.063,0,0,1,3.211,4.071c.838,1.989,1.633,4,2.425,6a8.866,8.866,0,0,1,.294,1.219,2.784,2.784,0,0,1-2.741.3c-.355-.1-.661-.642-.833-1.048-.656-1.551-1.22-3.14-1.874-4.693a25.323,25.323,0,0,0-1.386-2.827,3.949,3.949,0,0,0-3.668-2.055c-.683,0-1.367,0-2.257,0-.011,1.729-.026,3.447-.032,5.165-.005,1.735,0,3.469,0,5.148a2.91,2.91,0,0,1-3.167.022v-1.346q0-10.048,0-20.1a9.594,9.594,0,0,1,.03-1.106,1.1,1.1,0,0,1,1.13-1.1c2.89.014,5.807-.349,8.656.351a5.991,5.991,0,0,1,4.459,7.909,5.473,5.473,0,0,1-2.62,3.23c-.455.258-.928.483-1.628.846m-6.78-1.681c1.22,0,2.364.055,3.5-.02a7.113,7.113,0,0,0,2.138-.462c1.655-.661,2.342-1.946,2.229-3.929a3.344,3.344,0,0,0-2.6-3.342,17.224,17.224,0,0,0-5.263-.315Z" transform="translate(-64.324 -69.13)" fill="#fff"/><path d="M146.65,327.465a3.432,3.432,0,0,1-2.526.274c-.594-.077-.79-.619-.985-1.128-.62-1.625-1.223-3.258-1.908-4.856a23.638,23.638,0,0,0-1.526-2.934,3.657,3.657,0,0,0-3.175-1.773c-.784-.028-1.569,0-2.534,0v10.513a12.792,12.792,0,0,1-1.514.255c-1.486.06-1.7-.162-1.705-1.7q-.007-10.141,0-20.282a7.035,7.035,0,0,1,.054-1.106,1.046,1.046,0,0,1,1.048-1c3,.008,6.032-.4,8.975.408a5.962,5.962,0,0,1,4.21,7.811,5.539,5.539,0,0,1-2.612,3.245c-.449.268-.928.487-1.5.781,3.323,2.75,3.933,6.876,5.593,10.45a3.171,3.171,0,0,1,.1,1.044m-12.686-21.3c0,1.61-.032,2.918.009,4.222a17.414,17.414,0,0,0,.188,4.156c1.535-.106,3.007-.115,4.449-.329a3.6,3.6,0,0,0,3.306-3.757c.036-2.178-.9-3.5-3.07-3.9a46.594,46.594,0,0,0-4.882-.389" transform="translate(-29.774 -69.128)" fill="#fff"/><path d="M15.592,327.153c-1.542,1.079-3.084.88-4.083-.473-2.382-3.223-4.74-6.462-7.11-9.693-.338-.46-.687-.911-1.187-1.573-.046.652-.1,1.043-.1,1.435-.007,3.007,0,6.015,0,9.023,0,1.8-.318,2.081-2.14,1.912a1.972,1.972,0,0,1-.462-.088A4.209,4.209,0,0,1,0,327.429V303.854a3.51,3.51,0,0,1,3.071.076c.082,1.7.025,3.485.036,5.264a35.2,35.2,0,0,0,.276,5.217q1.57-1.959,3.138-3.918c1.478-1.856,2.946-3.721,4.425-5.575,1.179-1.477,1.895-1.672,3.869-1.069.349.708-.142,1.171-.537,1.647q-2.976,3.595-5.965,7.179c-.569.686-1.132,1.376-1.767,2.147.937,1.26,1.837,2.482,2.747,3.7,1.8,2.4,3.619,4.8,5.414,7.209.335.45.6.955.886,1.427" transform="translate(0 -69.105)" fill="#fff"/><path d="M110.115,325.03h6.077c.843,0,1.687-.019,2.529.005,1.105.031,1.413.346,1.374,1.426a6.654,6.654,0,0,1-.255,1.138c-.506.034-.969.091-1.433.093q-4.823.012-9.646,0c-1.723-.005-2.023-.271-2.029-2.027-.022-6.647-.009-13.294-.005-19.941a4.239,4.239,0,0,1,.072-.785c.182-.946.407-1.165,1.344-1.236.524-.04,1.054-.012,1.581-.012q4.19,0,8.381,0c1.806,0,2.094.373,1.705,2.172-.021.1-.111.175-.28.432h-9.409a21.728,21.728,0,0,0-.133,3.73c-.023,1.21,0,2.421,0,3.811.587.018,1.094.044,1.6.045,1.792.005,3.584,0,5.376,0,1.528.007,1.84.373,1.62,1.891a2.9,2.9,0,0,1-.275.588c-2.637.14-5.358-.012-8.048.086a38.521,38.521,0,0,0-.141,8.578" transform="translate(-24.297 -69.14)" fill="#fff"/><path d="M271.555,303.713v2.478a34.382,34.382,0,0,1-4.951.138c-1.569.029-3.14.006-4.8.006v7.544h8.089a2.318,2.318,0,0,1,.205,2.525h-8.284v8.56c.557.025,1.069.066,1.581.069,2.163.007,4.326,0,6.488,0,2.036,0,2.385.545,1.549,2.665h-1.646q-4.431,0-8.862,0c-2.3,0-2.471-.175-2.473-2.56q-.007-9.423,0-18.847a12.249,12.249,0,0,1,.09-1.417,1.166,1.166,0,0,1,1.25-1.162c3.842-.007,7.685,0,11.76,0" transform="translate(-58.842 -69.146)" fill="#fff"/><path d="M75.538,303.764a15.647,15.647,0,0,1,1.836-.232c1.247,0,1.431.128,1.838,1.3.778,2.237,1.525,4.485,2.285,6.729q1.9,5.609,3.8,11.219c.129.382.284.753.565,1.492.3-.846.5-1.367.675-1.895q2.79-8.393,5.575-16.789c.735-2.21,1.058-2.379,3.465-1.847.439.705-.049,1.33-.26,1.935-1.912,5.523-3.863,11.031-5.8,16.546-.489,1.391-.948,2.792-1.445,4.181-.441,1.233-.623,1.345-1.962,1.386-.106,0-.211,0-.317,0-1.924.009-1.995-.037-2.614-1.8q-3.514-9.983-7.019-19.968c-.237-.678-.388-1.386-.629-2.26" transform="translate(-17.198 -69.095)" fill="#fff"/><path d="M38.39,303.851v2.45H28.659v7.551h8.085a2.547,2.547,0,0,1,.234,2.505H28.609c-.012,1.534-.028,2.934-.033,4.335-.005,1.367,0,2.733,0,4.211.466.048.863.122,1.26.124,2.478.011,4.958-.008,7.436.012a1.373,1.373,0,0,1,1.324,2.117,1.393,1.393,0,0,1-1.026.514c-1.209.065-2.424.029-3.638.029-2.215,0-4.43.013-6.645,0-1.63-.013-1.889-.239-1.892-1.8q-.024-10.213,0-20.426c0-1.423.305-1.752,1.629-1.762,3.533-.025,7.067-.006,10.6,0a5.135,5.135,0,0,1,.767.141" transform="translate(-5.779 -69.142)" fill="#fff"/><path d="M64.928,324.947h8.92a5.966,5.966,0,0,1,.343,1.2c.081,1.182-.218,1.508-1.414,1.515q-4.592.027-9.185,0c-1.566-.008-1.783-.235-1.79-1.888-.016-3.592-.005-7.184-.005-10.776V303.9a3.432,3.432,0,0,1,3.132.053Z" transform="translate(-14.068 -69.108)" fill="#fff"/><path d="M49.424,303.759h3.01c.052.67.133,1.23.134,1.791q.013,10.22,0,20.44c0,.317-.008.633-.022.949a.83.83,0,0,1-.776.855,7.52,7.52,0,0,1-1.42.033,1,1,0,0,1-1.036-1.135c.007-.317,0-.633,0-.951q0-10.06,0-20.122c0-.567.063-1.133.107-1.861" transform="translate(-11.227 -69.157)" fill="#fff"/><path d="M187.155,327.571a8.49,8.49,0,0,1-1.162.217c-1.571.089-1.847-.172-1.848-1.732q-.007-10.379,0-20.757v-1.24a3.061,3.061,0,0,1,2.927-.288c.327,1.1.416,21.852.085,23.8" transform="translate(-41.924 -69.106)" fill="#fff"/><path d="M58.587,164.423H56.782q-11.117,0-22.232.007a10.145,10.145,0,0,0-4.985,1,8.083,8.083,0,0,0-4.595,7.289c-.069,3.477-.022,6.957-.025,10.435q0,4.765,0,9.528v1.576H.134c-.042-.324-.1-.656-.123-.99-.021-.3,0-.6,0-.907q0-93.692.008-187.384a10.888,10.888,0,0,1,.207-2.4A3.16,3.16,0,0,1,3.214.028C3.615-.009,4.021,0,4.424,0h225.8c.4,0,.809-.015,1.209.025a3.21,3.21,0,0,1,2.938,2.622,12.89,12.89,0,0,1,.174,2.406q.013,32.667.007,65.334V194.264h-24.9v-1.715q0-9.377,0-18.754a9.559,9.559,0,0,0-.879-4.55c-1.779-3.419-4.717-4.806-8.433-4.819-3.882-.012-7.763,0-11.645,0H176.022c.082-.487.121-.813.192-1.133q8.6-38.723,17.2-77.445c1.5-6.737,3.019-13.468,4.484-20.211a8.578,8.578,0,0,0-2.624-8.8,9.1,9.1,0,0,0-5.986-2.166c-.453-.015-.907-.013-1.361-.013q-70.628,0-141.256.014a16.675,16.675,0,0,0-3.9.362,8.5,8.5,0,0,0-6.142,10.412c1.557,6.878,3.053,13.77,4.578,20.656q6.292,28.4,12.587,56.8c1.57,7.08,3.15,14.158,4.79,21.529" transform="translate(0 0)" fill="#fff"/><path d="M213.449,229.2c-.028-4.133-.07-8.265-.081-12.4-.014-5.344,0-10.687-.005-16.03,0-3.556-1.043-4.585-4.583-4.6q-13.23-.054-26.461-.128a7.285,7.285,0,0,1-1.2-.07,2.37,2.37,0,0,1-2.032-2.287,6.148,6.148,0,0,1,.181-1.489q.715-3.4,1.464-6.794,2.615-11.778,5.243-23.555,4.457-20.1,8.9-40.2c.388-1.752.773-3.5,1.18-5.345H56.262c.065.484.09.881.175,1.265.431,1.962.882,3.921,1.317,5.883q5.092,22.983,10.179,45.968Q70.473,180.91,73,192.4c.513,2.339-.494,3.6-2.867,3.638-3.93.056-7.861.11-11.79.126-5.092.021-10.183,0-15.275.012a6.926,6.926,0,0,0-1.8.154c-1.6.439-2.334,1.63-2.344,3.765q-.072,14.743-.111,29.485c0,.384.073.768.118,1.212H213.451c0-.606,0-1.1,0-1.6" transform="translate(-8.838 -26.479)" fill="#fff"/></g></svg>