<svg xmlns="http://www.w3.org/2000/svg" width="33" height="193" viewBox="0 0 33 193">
  <g id="Group_15250" data-name="Group 15250" transform="translate(0.5 0.5)">
    <g id="Group_13283" data-name="Group 13283" transform="translate(0)">
      <path id="Union_8" data-name="Union 8" d="M5.486,0H0V192H5.586a1.121,1.121,0,0,0,.8-.336l.071-.072.07-.072a1.162,1.162,0,0,0,.332-.813v-5.091a1.154,1.154,0,0,1,.422-.9l.091-.074.091-.074a1.112,1.112,0,0,1,.952-.225l.113.025,21.919,4.951a1.118,1.118,0,0,0,.953-.225l.09-.073.09-.074a1.156,1.156,0,0,0,.423-.9V3.945a1.157,1.157,0,0,0-.423-.9l-.09-.073L31.4,2.9a1.119,1.119,0,0,0-.953-.225l-.114.025L8.413,7.654a1.118,1.118,0,0,1-.952-.226L7.37,7.354,7.279,7.28a1.155,1.155,0,0,1-.422-.9V1.15A1.14,1.14,0,0,0,5.727,0Z" transform="translate(32 192) rotate(180)" fill="#587681" stroke="rgba(0,0,0,0)" stroke-miterlimit="10" stroke-width="1"/>
      <rect id="Rectangle_237" data-name="Rectangle 237" width="3.463" height="176.626" transform="translate(21.321 7.945)" fill="#4d6771"/>
    </g>
  </g>
</svg>
